<svg xmlns="http://www.w3.org/2000/svg" width="119.509" height="101.249" viewBox="0 0 119.509 101.249">
  <g id="Groupe_424" data-name="Groupe 424" transform="translate(-139 -862.416)">
    <g id="home" transform="translate(140 863.416)">
      <path id="Tracé_315" data-name="Tracé 315" d="M3,36.737,47.662,2,92.324,36.737V91.324a9.925,9.925,0,0,1-9.925,9.925H12.925A9.925,9.925,0,0,1,3,91.324Z" transform="translate(-3 -2)" fill="none" stroke="#fff" stroke-linecap="round" stroke-linejoin="round" stroke-width="2"/>
      <path id="Tracé_316" data-name="Tracé 316" d="M9,61.625V12H38.775V61.625" transform="translate(20.775 37.625)" fill="none" stroke="#fff" stroke-linecap="round" stroke-linejoin="round" stroke-width="2"/>
    </g>
    <path id="message-circle" d="M3,25.889A22.566,22.566,0,0,0,5.424,36.122,22.889,22.889,0,0,0,25.889,48.779a22.566,22.566,0,0,0,10.233-2.424l15.349,5.116L46.355,36.122a22.566,22.566,0,0,0,2.424-10.233A22.889,22.889,0,0,0,36.122,5.424,22.566,22.566,0,0,0,25.889,3H24.543A22.836,22.836,0,0,0,3,24.543Z" transform="translate(199.245 881.826) rotate(-8)" fill="#685d58" stroke="#fff" stroke-linecap="round" stroke-linejoin="round" stroke-width="2"/>
  </g>
</svg>
