<svg xmlns="http://www.w3.org/2000/svg" width="114" height="101.25" viewBox="0 0 114 101.25">
  <g id="Groupe_532" data-name="Groupe 532" transform="translate(-1405 -2320.811)">
    <g id="home" transform="translate(1406 2321.811)">
      <path id="Tracé_315" data-name="Tracé 315" d="M3,36.737,47.662,2,92.324,36.737V91.324a9.925,9.925,0,0,1-9.925,9.925H12.925A9.925,9.925,0,0,1,3,91.324Z" transform="translate(-3 -2)" fill="none" stroke="#000" stroke-linecap="round" stroke-linejoin="round" stroke-width="2"/>
      <path id="Tracé_316" data-name="Tracé 316" d="M9,61.625V12H38.775V61.625" transform="translate(20.775 37.625)" fill="none" stroke="#000" stroke-linecap="round" stroke-linejoin="round" stroke-width="2"/>
    </g>
    <g id="help-circle" transform="translate(1471 2336.876)">
      <circle id="Ellipse_18" data-name="Ellipse 18" cx="22.5" cy="22.5" r="22.5" transform="translate(2 2.124)" fill="#fff" stroke="#000" stroke-linecap="round" stroke-linejoin="round" stroke-width="2"/>
      <path id="Tracé_324" data-name="Tracé 324" d="M9.09,11.55a6.817,6.817,0,0,1,13.247,2.272c0,4.544-6.817,6.817-6.817,6.817" transform="translate(9.02 6.355)" fill="#fff" stroke="#000" stroke-linecap="round" stroke-linejoin="round" stroke-width="2"/>
      <line id="Ligne_163" data-name="Ligne 163" x2="0.023" transform="translate(24.722 36.083)" fill="none" stroke="#000" stroke-linecap="round" stroke-linejoin="round" stroke-width="2"/>
    </g>
  </g>
</svg>
