<svg xmlns="http://www.w3.org/2000/svg" width="114.196" height="101.25" viewBox="0 0 114.196 101.25">
  <g id="Groupe_531" data-name="Groupe 531" transform="translate(-912.974 -2320.811)">
    <g id="Groupe_426" data-name="Groupe 426" transform="translate(353.974 1458.247)">
      <g id="home" transform="translate(560 863.563)">
        <path id="Tracé_315" data-name="Tracé 315" d="M3,36.737,47.662,2,92.324,36.737V91.324a9.925,9.925,0,0,1-9.925,9.925H12.925A9.925,9.925,0,0,1,3,91.324Z" transform="translate(-3 -2)" fill="none" stroke="#000" stroke-linecap="round" stroke-linejoin="round" stroke-width="2"/>
        <path id="Tracé_316" data-name="Tracé 316" d="M9,61.625V12H38.775V61.625" transform="translate(20.775 37.625)" fill="none" stroke="#000" stroke-linecap="round" stroke-linejoin="round" stroke-width="2"/>
      </g>
      <g id="search" transform="translate(618.278 884.818) rotate(-9)">
        <circle id="Ellipse_13" data-name="Ellipse 13" cx="23.5" cy="23.5" r="23.5" transform="translate(0 0)" fill="#fff" stroke="#000" stroke-linecap="round" stroke-linejoin="round" stroke-width="2"/>
      </g>
      <g id="check-circle" transform="translate(632.619 892.59)">
        <path id="Tracé_312" data-name="Tracé 312" d="M17.305,7.862v.8A8.653,8.653,0,1,1,12.174.75" transform="matrix(0.809, 0.588, -0.588, 0.809, 10.172, 0)" fill="none" stroke="#000" stroke-linecap="round" stroke-linejoin="round" stroke-width="2"/>
      </g>
      <path id="Tracé_320" data-name="Tracé 320" d="M-7825,14865.895h8.8" transform="translate(8458.619 -13963.447)" fill="none" stroke="#000" stroke-linecap="round" stroke-width="2"/>
      <path id="Tracé_321" data-name="Tracé 321" d="M-7825,14865.895h8.8" transform="translate(8458.619 -13958.988)" fill="none" stroke="#000" stroke-linecap="round" stroke-width="2"/>
    </g>
  </g>
</svg>
