<svg xmlns="http://www.w3.org/2000/svg" width="122.988" height="101.249" viewBox="0 0 122.988 101.249">
  <g id="Groupe_426" data-name="Groupe 426" transform="translate(-559 -862.563)">
    <g id="home" transform="translate(560 863.563)">
      <path id="Tracé_315" data-name="Tracé 315" d="M3,36.737,47.662,2,92.324,36.737V91.324a9.925,9.925,0,0,1-9.925,9.925H12.925A9.925,9.925,0,0,1,3,91.324Z" transform="translate(-3 -2)" fill="none" stroke="#fff" stroke-linecap="round" stroke-linejoin="round" stroke-width="2"/>
      <path id="Tracé_316" data-name="Tracé 316" d="M9,61.625V12H38.775V61.625" transform="translate(20.775 37.625)" fill="none" stroke="#fff" stroke-linecap="round" stroke-linejoin="round" stroke-width="2"/>
    </g>
    <g id="search" transform="translate(618.278 884.818) rotate(-9)">
      <circle id="Ellipse_13" data-name="Ellipse 13" cx="23.5" cy="23.5" r="23.5" transform="translate(0 0)" fill="#685d58" stroke="#fff" stroke-linecap="round" stroke-linejoin="round" stroke-width="2"/>
      <line id="Ligne_161" data-name="Ligne 161" x1="14.54" y1="14.54" transform="translate(39.433 41.606)" fill="none" stroke="#fff" stroke-linecap="round" stroke-linejoin="round" stroke-width="2"/>
    </g>
    <g id="check-circle" transform="translate(632.619 892.59)">
      <path id="Tracé_312" data-name="Tracé 312" d="M17.305,7.862v.8A8.653,8.653,0,1,1,12.174.75" transform="matrix(0.809, 0.588, -0.588, 0.809, 10.172, 0)" fill="none" stroke="#fff" stroke-linecap="round" stroke-linejoin="round" stroke-width="2"/>
    </g>
    <path id="Tracé_320" data-name="Tracé 320" d="M-7825,14865.895h8.8" transform="translate(8458.619 -13963.447)" fill="none" stroke="#fff" stroke-linecap="round" stroke-width="2"/>
    <path id="Tracé_321" data-name="Tracé 321" d="M-7825,14865.895h8.8" transform="translate(8458.619 -13958.988)" fill="none" stroke="#fff" stroke-linecap="round" stroke-width="2"/>
  </g>
</svg>
